<?xml version="1.0" standalone="no"?>
<!DOCTYPE svg PUBLIC "-//W3C//DTD SVG 20010904//EN"
 "http://www.w3.org/TR/2001/REC-SVG-20010904/DTD/svg10.dtd">
<svg version="1.0" xmlns="http://www.w3.org/2000/svg"
 width="512.000000pt" height="512.000000pt" viewBox="0 0 512.000000 512.000000"
 preserveAspectRatio="xMidYMid meet">
<metadata>
Created by potrace 1.11, written by Peter Selinger 2001-2013
</metadata>
<g transform="translate(0.000000,512.000000) scale(0.100000,-0.100000)"
fill="#000000" stroke="none">
<path d="M3438 5098 c-27 -11 -48 -25 -48 -30 0 -5 -20 -30 -45 -56 -25 -25
-47 -54 -51 -64 -3 -10 -10 -18 -15 -18 -5 0 -9 -7 -9 -15 0 -9 -6 -18 -13
-21 -8 -3 -20 -20 -27 -39 -8 -19 -17 -35 -22 -35 -4 0 -8 -9 -8 -21 0 -11 -7
-27 -15 -35 -8 -9 -15 -26 -15 -40 0 -13 -4 -24 -10 -24 -5 0 -10 -11 -10 -24
0 -13 -7 -40 -15 -60 -8 -20 -20 -71 -25 -113 -6 -43 -13 -94 -16 -113 -6 -44
-7 -228 0 -238 3 -6 8 -50 20 -183 2 -14 6 -31 10 -37 4 -7 10 -40 13 -75 3
-34 9 -66 13 -72 4 -5 11 -30 15 -55 4 -25 12 -51 17 -57 7 -9 6 -18 -3 -30
-8 -9 -9 -14 -4 -11 6 4 18 -18 27 -50 22 -75 48 -172 53 -197 7 -36 44 -169
60 -220 9 -27 19 -68 21 -90 3 -22 10 -45 15 -51 5 -6 6 -14 2 -17 -3 -4 -1
-12 4 -19 11 -13 22 -63 30 -133 2 -22 10 -67 18 -99 18 -82 19 -313 0 -406
-25 -127 -26 -134 -40 -165 -8 -16 -20 -45 -27 -62 -7 -18 -16 -33 -20 -33 -5
0 -8 -7 -8 -15 0 -9 -7 -18 -15 -21 -8 -4 -15 -14 -15 -23 0 -9 -9 -23 -20
-31 -11 -8 -20 -20 -20 -28 0 -7 -5 -10 -10 -7 -6 3 -13 -2 -17 -12 -7 -18
-33 -49 -33 -39 0 3 -19 -13 -42 -34 -59 -55 -77 -70 -83 -70 -17 -1 -125 -54
-125 -62 0 -5 -4 -6 -10 -3 -5 3 -29 -2 -52 -13 -24 -10 -58 -18 -75 -17 -18
0 -33 -2 -33 -5 0 -3 -17 -6 -37 -8 -45 -3 -268 -4 -268 -2 0 1 -18 4 -40 6
-65 6 -108 12 -135 19 -14 4 -32 8 -40 9 -9 1 -21 5 -28 10 -6 4 -17 4 -22 1
-6 -4 -17 -1 -25 5 -8 7 -29 14 -47 16 -58 5 -85 11 -98 19 -15 9 -11 -18 15
-110 9 -33 23 -89 31 -124 15 -72 25 -88 57 -90 30 -1 72 -8 72 -11 0 -1 14
-3 30 -4 17 -1 36 -5 42 -9 7 -5 17 -5 23 -2 6 3 16 3 23 -2 18 -11 35 -14 87
-13 8 0 44 -2 80 -5 79 -7 202 -7 250 0 19 3 53 6 76 8 22 2 46 7 51 10 10 6
40 12 98 19 11 2 24 9 28 16 5 7 17 10 28 7 11 -4 19 -2 19 5 0 6 5 8 10 5 6
-3 10 -1 10 5 0 6 5 8 10 5 6 -3 10 -1 10 5 0 7 7 10 15 6 8 -3 15 -1 15 5 0
6 5 7 10 4 6 -3 10 -1 10 5 0 7 7 9 16 6 8 -3 13 -2 9 3 -3 5 11 15 31 21 19
7 38 18 41 26 3 8 10 14 17 14 13 0 50 26 74 53 9 9 22 17 30 17 7 0 15 7 18
15 4 8 12 15 20 15 8 0 14 3 14 8 0 9 36 54 76 96 16 17 39 47 50 66 10 19 26
42 35 50 22 21 49 75 49 100 0 11 5 20 10 20 6 0 10 11 10 24 0 13 7 29 15 36
8 7 15 19 15 26 0 8 4 22 9 32 10 18 23 84 40 200 21 139 10 345 -29 547 -20
102 -28 138 -43 195 -8 30 -18 73 -22 95 -4 22 -10 44 -13 50 -6 9 -44 149
-61 225 -4 19 -12 44 -18 55 -6 11 -14 36 -18 55 -18 95 -49 222 -58 237 -2 4
-8 32 -11 62 -4 29 -8 57 -11 60 -2 4 -11 52 -20 107 -20 119 -24 349 -7 381
7 12 12 35 12 51 0 55 71 241 108 280 6 7 12 18 12 23 0 6 5 7 10 4 6 -3 10 0
10 8 0 8 16 31 35 50 19 19 35 40 35 46 0 6 4 11 9 11 11 0 31 55 31 85 0 46
-58 125 -98 132 -52 10 -71 9 -114 -9z"/>
<path d="M3712 4714 c-19 -19 -32 -37 -30 -41 7 -17 1008 -1006 1008 -998 0 6
13 24 29 41 l29 31 -501 501 -502 501 -33 -35z"/>
<path d="M3576 4409 c-3 -13 -7 -41 -9 -62 -3 -38 -2 -39 370 -410 330 -328
413 -402 413 -367 0 4 15 6 34 3 19 -2 37 0 40 5 3 5 -186 199 -419 432 -378
377 -424 421 -429 399z"/>
<path d="M3618 3873 c2 -27 8 -52 12 -58 4 -5 11 -24 14 -41 7 -32 120 -153
132 -141 4 3 16 1 28 -5 11 -6 35 -13 51 -14 17 -2 41 -5 55 -8 17 -4 -22 41
-135 154 -88 88 -160 160 -161 160 -1 0 1 -21 4 -47z"/>
<path d="M2450 3700 c-8 -5 -18 -6 -22 -4 -4 3 -8 1 -8 -5 0 -7 -8 -7 -25 -1
-17 7 -25 6 -25 -1 0 -8 -5 -7 -15 1 -8 7 -15 8 -15 3 0 -5 -8 -9 -17 -10 -10
-1 -34 -5 -53 -9 -19 -3 -43 -7 -52 -7 -10 -1 -18 -5 -18 -10 0 -4 -4 -5 -10
-2 -5 3 -23 -1 -41 -10 -17 -9 -33 -14 -36 -11 -3 3 -12 -2 -20 -10 -8 -8 -18
-12 -23 -9 -5 3 -11 1 -15 -5 -4 -6 -11 -8 -16 -5 -5 4 -9 2 -9 -3 0 -5 -20
-17 -45 -26 -25 -10 -45 -22 -45 -27 0 -4 -6 -6 -14 -3 -7 3 -16 -2 -19 -10
-4 -9 -13 -16 -20 -16 -8 0 -22 -11 -33 -24 -10 -14 -21 -23 -26 -20 -4 3 -8
2 -8 -3 0 -4 -17 -19 -38 -33 -37 -25 -82 -69 -82 -81 0 -4 -18 -26 -40 -50
-73 -79 -80 -88 -80 -102 0 -8 -7 -20 -15 -27 -8 -7 -15 -19 -15 -26 0 -8 -4
-14 -10 -14 -5 0 -10 -7 -10 -16 0 -14 -36 -101 -61 -146 -5 -10 -9 -31 -9
-47 0 -17 -4 -32 -8 -35 -36 -22 -41 -472 -8 -631 9 -44 21 -100 25 -125 18
-94 52 -246 61 -265 15 -33 29 -84 36 -130 3 -16 9 -39 14 -50 4 -11 15 -47
23 -80 8 -33 22 -85 31 -115 18 -62 17 -57 44 -165 11 -44 23 -102 27 -130 4
-27 11 -61 16 -75 5 -14 11 -54 15 -90 17 -185 18 -221 12 -256 -4 -22 -10
-73 -14 -114 -3 -41 -10 -76 -15 -78 -5 -2 -9 -13 -9 -24 0 -26 -49 -149 -67
-166 -7 -7 -13 -17 -13 -21 0 -4 -9 -19 -20 -32 -22 -27 -23 -28 -70 -89 -50
-64 -60 -85 -60 -125 0 -38 12 -66 48 -106 20 -23 31 -26 92 -28 47 -1 70 2
70 9 0 7 5 10 11 8 12 -4 69 47 69 62 0 4 16 24 35 43 19 19 35 40 35 46 0 6
5 11 10 11 6 0 10 7 10 16 0 8 6 22 13 29 27 31 33 42 59 105 39 96 68 190 68
220 0 15 3 30 7 33 13 14 17 78 16 289 -1 135 -6 225 -13 237 -6 12 -13 42
-15 68 -3 27 -9 71 -15 98 -35 167 -45 208 -66 277 -13 43 -24 86 -24 97 0 10
-7 32 -15 47 -8 16 -15 37 -15 47 0 10 -6 39 -14 65 -45 149 -54 184 -87 332
-5 25 -16 82 -24 127 -7 45 -16 87 -19 92 -11 17 -8 365 3 406 6 22 11 55 13
73 1 19 6 36 10 38 4 3 8 14 8 24 0 24 56 131 90 171 8 10 31 36 50 59 60 71
79 90 88 90 6 0 12 7 16 15 3 8 11 15 18 15 8 0 21 8 30 18 28 30 43 39 56 34
6 -2 12 1 12 8 0 6 5 8 10 5 6 -3 10 -2 10 3 0 13 78 44 91 37 5 -4 9 -1 9 5
0 6 5 8 10 5 6 -3 10 -1 10 5 0 7 7 10 15 6 8 -3 15 -2 15 3 0 4 15 8 33 9 61
3 92 9 113 20 12 6 26 7 34 2 8 -5 28 -6 44 -4 17 3 40 5 51 4 11 -1 26 -1 33
-1 6 1 18 1 25 1 15 0 62 -8 62 -10 0 -1 18 -4 40 -6 51 -4 102 -11 140 -19
17 -3 44 -7 62 -9 17 -2 37 -7 44 -11 7 -5 31 -9 53 -10 23 -1 56 -9 74 -19
34 -17 34 -17 27 5 -4 12 -22 79 -39 148 -18 69 -37 134 -42 144 -10 17 -28
23 -101 31 -17 2 -37 7 -43 11 -7 4 -36 10 -64 12 -28 2 -69 6 -91 8 -22 3
-88 6 -146 8 -58 2 -110 6 -115 10 -6 3 -16 2 -24 -3z"/>
<path d="M4932 3649 c-13 -5 -30 -14 -37 -21 -8 -7 -35 -31 -60 -53 -25 -22
-55 -48 -66 -57 -10 -10 -20 -18 -21 -17 -8 3 -58 -25 -58 -32 0 -5 -6 -6 -14
-3 -7 3 -21 -3 -30 -12 -10 -9 -29 -18 -43 -20 -14 -1 -29 -6 -32 -11 -3 -4
-15 -9 -26 -11 -11 -1 -33 -5 -50 -8 -16 -3 -40 -6 -52 -6 -13 0 -23 -3 -23
-7 0 -8 -292 -5 -335 3 -16 4 -52 8 -80 10 -27 2 -50 5 -50 6 0 2 -9 4 -20 6
-20 3 -48 9 -95 20 -14 3 -39 7 -56 9 -17 1 -40 7 -50 13 -11 6 -26 7 -33 3
-11 -7 -7 -32 18 -122 45 -166 52 -186 65 -187 10 0 26 -4 86 -18 14 -3 34 -7
45 -8 11 -2 20 -4 20 -6 0 -1 23 -4 50 -6 28 -2 64 -6 80 -10 17 -3 47 -6 67
-5 21 0 40 -5 44 -10 3 -5 10 -6 16 -3 13 8 142 9 154 1 5 -3 20 1 34 8 16 8
32 10 47 4 13 -5 23 -5 23 -1 0 5 15 9 33 10 52 2 67 5 67 12 0 4 16 6 35 5
19 -1 35 3 35 8 0 5 7 7 15 3 8 -3 15 -1 15 5 0 6 5 7 10 4 6 -3 10 -1 10 6 0
7 3 10 6 6 8 -8 64 13 64 25 0 5 4 6 10 3 5 -3 24 2 42 12 18 9 36 16 41 15 4
-1 7 3 7 9 0 5 5 7 10 4 6 -3 10 -1 10 5 0 7 6 10 13 7 6 -2 19 7 28 20 9 14
20 24 23 23 9 -2 47 26 98 72 22 21 44 36 48 33 13 -8 50 86 50 129 0 36 -6
50 -37 85 -21 23 -48 44 -61 46 -12 2 -27 7 -34 11 -7 5 -8 3 -3 -5 6 -10 3
-11 -11 -3 -12 6 -28 6 -42 1z"/>
<path d="M2351 3205 c-19 -9 21 -52 424 -455 277 -277 446 -439 448 -430 2 8
9 34 14 57 l10 41 -399 399 c-388 388 -399 398 -438 399 -21 0 -48 -5 -59 -11z"/>
<path d="M3006 2999 c109 -109 200 -199 202 -199 7 0 -11 106 -20 117 -5 7 -7
17 -3 23 10 15 -204 229 -235 236 -162 35 -165 45 56 -177z"/>
<path d="M2062 3053 l-34 -36 498 -498 c541 -541 507 -513 557 -455 18 20 10
28 -485 523 -277 277 -503 503 -503 502 0 0 -15 -17 -33 -36z"/>
<path d="M1906 2780 c-2 -8 -6 -36 -9 -61 l-4 -47 396 -395 396 -395 45 4 c66
6 70 7 70 13 0 3 -200 206 -445 451 -287 286 -446 439 -449 430z"/>
<path d="M1926 2263 c4 -21 8 -45 10 -53 9 -66 21 -83 125 -185 60 -59 114
-103 119 -100 6 4 17 1 25 -5 12 -10 15 -10 15 0 0 9 4 9 13 3 6 -6 19 -11 27
-11 8 0 26 -3 40 -6 17 -4 -38 56 -175 194 -110 110 -201 200 -203 200 -2 0 0
-17 4 -37z"/>
<path d="M873 2013 c5 -8 -85 -15 -158 -12 -27 0 -34 0 -75 -6 -19 -3 -41 -6
-47 -7 -7 -1 -13 -4 -13 -8 0 -3 -11 -7 -25 -8 -14 -1 -36 -4 -50 -5 -14 -1
-25 -6 -25 -10 0 -5 -4 -5 -10 -2 -5 3 -10 1 -10 -5 0 -6 -4 -8 -10 -5 -5 3
-10 1 -10 -5 0 -6 -4 -9 -9 -6 -11 7 -132 -43 -143 -59 -4 -5 -8 -6 -8 -2 0 8
-13 -1 -50 -35 -10 -9 -27 -19 -39 -23 -12 -3 -21 -11 -21 -17 0 -6 -3 -9 -6
-5 -3 3 -25 -14 -49 -39 -24 -24 -48 -44 -54 -44 -18 0 -51 -77 -51 -119 0
-68 49 -128 113 -137 18 -3 38 -7 45 -9 6 -2 12 0 12 6 0 6 5 7 10 4 6 -3 10
-1 10 5 0 6 5 8 11 5 5 -4 19 3 30 16 10 12 19 19 19 15 0 -3 16 10 35 30 19
19 39 33 43 30 5 -3 15 5 21 18 7 12 28 28 47 35 19 7 34 16 34 21 0 5 6 7 13
4 7 -2 24 5 37 16 13 11 30 18 37 16 7 -3 13 -1 13 5 0 6 5 7 10 4 6 -3 10 -2
10 2 0 5 8 9 18 10 9 1 33 5 52 8 19 3 47 8 61 9 14 2 35 9 46 15 11 5 22 8
25 6 8 -8 68 -13 68 -6 0 11 180 -1 199 -14 6 -3 11 -1 11 6 0 9 4 9 15 -1 8
-6 19 -9 25 -5 6 4 18 1 27 -7 14 -11 16 -11 8 1 -6 11 -5 12 6 5 8 -5 23 -10
34 -11 32 -3 70 -10 70 -12 0 -2 7 -4 15 -6 8 -2 29 -6 45 -10 27 -6 43 -8
110 -18 11 -2 26 -6 33 -11 15 -9 16 18 1 45 -8 16 -48 172 -63 248 -1 8 -9
16 -17 17 -8 2 -25 6 -39 9 -14 3 -42 8 -63 10 -21 2 -43 8 -50 13 -7 6 -25 8
-42 7 -16 -2 -33 -1 -39 2 -5 4 -23 7 -40 8 -17 0 -37 4 -44 9 -7 4 -12 2 -12
-5 0 -7 -5 -8 -12 -3 -7 5 -33 9 -58 8 -25 -1 -53 3 -64 8 -10 6 -16 6 -13 1z"/>
<path d="M766 1533 c-3 -3 -17 -6 -31 -7 -14 -1 -26 -5 -26 -10 -1 -4 189
-199 422 -433 l424 -424 6 66 6 66 -374 372 c-356 354 -402 394 -427 370z"/>
<path d="M1360 1335 c90 -90 166 -163 168 -161 1 2 -6 41 -18 87 -19 78 -25
88 -78 142 -32 31 -68 59 -80 62 -12 2 -27 7 -34 11 -6 4 -25 9 -42 10 -17 2
-42 5 -56 8 -17 4 24 -43 140 -159z"/>
<path d="M416 1389 l-35 -34 501 -502 501 -502 35 35 c18 18 32 37 30 41 -1 5
-226 230 -500 502 l-496 493 -36 -33z"/>
</g>
</svg>
